<svg width="546" height="251" viewBox="0 0 546 251" fill="none" xmlns="http://www.w3.org/2000/svg">
<path d="M342 230.5C293.675 230.5 254.5 191.325 254.5 143C254.5 94.675 293.675 55.5 342 55.5C347.444 55.5 354.229 55.5627 361.985 55.791C363.905 55.8475 365.988 55.4606 368.147 54.8754C370.005 54.3719 371.947 53.7134 373.911 53.0474C374.23 52.9394 374.549 52.8312 374.868 52.7235C379.479 51.1676 384.163 49.7034 388.466 49.9988C392.148 50.2516 395.472 52.2303 399.004 54.3493L399.069 54.3882C402.541 56.4711 406.202 58.6679 410.444 59.1495C441.31 62.6539 475.116 69.4401 501.191 82.4646C527.26 95.4863 545.5 114.683 545.5 143C545.5 145.588 544.245 147.767 542.767 149.971C542.567 150.27 542.362 150.569 542.156 150.87C540.868 152.751 539.533 154.703 539.014 156.884C534.735 174.853 523.181 188.444 507.492 198.73C491.796 209.021 471.983 215.988 451.252 220.7C409.79 230.124 364.78 230.5 342 230.5Z" fill="url(#paint0_linear_178_2)" stroke="white"/>
<path d="M388.239 63.0402C382.112 62.2875 374.448 64.6472 371.382 65.9212C373.116 72.4523 381.251 74.0492 385.899 74.9617C388.688 75.5092 394.601 73.6686 399.271 71.3963C398.147 68.9246 394.367 63.793 388.239 63.0402Z" fill="#F5F5F5" stroke="black"/>
<circle cx="388.5" cy="69.5" r="3.5" fill="black"/>
<path d="M539.531 153.743L534.563 154.309L537.456 162.031L539.531 153.743Z" fill="#F5F5F5"/>
<path d="M534.986 154L530 154.376L532.596 162.203L534.986 154Z" fill="#F5F5F5"/>
<path d="M529.986 154L525 154.376L527.596 162.203L529.986 154Z" fill="#F5F5F5"/>
<path d="M525 154L520 154.007L522.011 162.004L525 154Z" fill="#F5F5F5"/>
<path d="M520.361 154.249L515.382 153.791L516.642 161.941L520.361 154.249Z" fill="#F5F5F5"/>
<path d="M515.711 154.249L510.732 153.791L511.992 161.941L515.711 154.249Z" fill="#F5F5F5"/>
<path d="M510.711 154.249L505.732 153.791L506.992 161.941L510.711 154.249Z" fill="#F5F5F5"/>
<path d="M505.757 154.249L501.61 153.868L502.659 160.656L505.757 154.249Z" fill="#F5F5F5"/>
<path d="M501.757 154.249L497.61 153.868L498.659 160.656L501.757 154.249Z" fill="#F5F5F5"/>
<path d="M497.757 154.249L493.61 153.868L494.659 160.656L497.757 154.249Z" fill="#F5F5F5"/>
<path d="M493.757 154.249L489.61 153.868L490.659 160.656L493.757 154.249Z" fill="#F5F5F5"/>
<path d="M489.757 154.249L485.61 153.868L486.659 160.656L489.757 154.249Z" fill="#F5F5F5"/>
<path d="M485.757 154.249L481.61 153.868L482.659 160.656L485.757 154.249Z" fill="#F5F5F5"/>
<path d="M481.757 154.249L478.373 153.938L479.229 159.477L481.757 154.249Z" fill="#F5F5F5"/>
<path d="M478.881 154.249L475.497 153.938L476.354 159.477L478.881 154.249Z" fill="#F5F5F5"/>
<path d="M475.881 154.249L472.497 153.938L473.354 159.477L475.881 154.249Z" fill="#F5F5F5"/>
<path d="M472.881 154.249L470.366 154.018L471.002 158.135L472.881 154.249Z" fill="#F5F5F5"/>
<path d="M470.885 154.231L468.37 154L469.006 158.117L470.885 154.231Z" fill="#F5F5F5"/>
<path d="M468.885 154.231L466.37 154L467.006 158.117L468.885 154.231Z" fill="#F5F5F5"/>
<path d="M235.814 46.7767C236.033 46.7411 236.215 46.7292 236.362 46.7353L236.913 50.4122C236.806 51.2508 236.7 52.1363 236.742 52.8763C236.786 53.6456 237.004 54.5016 237.822 54.837C238.196 54.9902 238.649 55.0275 239.116 55.0099C239.591 54.992 240.128 54.9148 240.696 54.8037C241.773 54.5926 243.015 54.2477 244.239 53.9081L244.427 53.8558C245.723 53.4962 246.988 53.1504 248.058 52.9597C248.593 52.8645 249.063 52.8111 249.453 52.8108C249.704 52.8106 249.904 52.8328 250.058 52.8701L250.701 57.1604C250.579 58.0149 250.463 58.913 250.503 59.6991C250.548 60.5745 250.794 61.4566 251.594 61.9647C251.925 62.175 252.314 62.2529 252.702 62.2627C253.092 62.2725 253.516 62.2146 253.948 62.1217C254.779 61.9428 255.72 61.6155 256.623 61.3012L256.714 61.2697C257.663 60.9395 258.566 60.6294 259.337 60.4768C259.72 60.4008 260.047 60.3689 260.314 60.3858C260.479 60.3961 260.608 60.4242 260.71 60.464L261.4 65.0706C261.357 65.9616 261.32 66.8781 261.385 67.6725C261.455 68.5284 261.652 69.403 262.247 69.9217C262.779 70.386 263.587 70.5467 264.388 70.6075C265.176 70.6674 266.081 70.6361 266.952 70.6059L267.065 70.6019C267.987 70.5701 268.865 70.5441 269.603 70.6147C270.261 70.6776 270.711 70.8104 270.976 71.0023L271.691 75.7792C271.643 76.5494 271.604 77.3427 271.658 78.0727C271.723 78.9404 271.923 79.7974 272.463 80.4573C272.738 80.7925 273.141 80.9801 273.559 81.0896C273.981 81.2005 274.474 81.2458 274.994 81.2549C276.001 81.2727 277.204 81.1553 278.371 81.0414L278.482 81.0306C279.703 80.9116 280.876 80.8013 281.823 80.8321C282.296 80.8475 282.685 80.8977 282.981 80.9871C283.146 81.0369 283.266 81.0941 283.354 81.1531L281.842 86.278C281.338 87.2635 280.827 88.2744 280.499 89.1707C280.321 89.6579 280.188 90.1356 280.145 90.5751C280.101 91.0121 280.142 91.4591 280.364 91.8417C280.598 92.2425 280.985 92.5778 281.429 92.8659C281.879 93.1578 282.426 93.426 283.024 93.6777C284.152 94.1518 285.519 94.5906 286.866 95.0229L287.105 95.0997C288.543 95.5614 289.94 96.0178 291.051 96.5152C291.606 96.7635 292.071 97.0144 292.426 97.2703C292.667 97.4439 292.841 97.6082 292.959 97.761L290.218 102.006C289.432 102.747 288.622 103.521 288.048 104.271C287.45 105.051 286.974 105.975 287.294 106.89C287.557 107.643 288.245 108.261 289.004 108.785C289.737 109.291 290.63 109.771 291.494 110.236L291.641 110.316C292.566 110.814 293.447 111.295 294.136 111.799C294.763 112.257 295.153 112.68 295.31 113.076L293.232 117.992C292.729 118.718 292.222 119.469 291.846 120.207C291.408 121.066 291.106 121.983 291.241 122.889C298.396 170.681 265.452 215.224 217.659 222.379C195.269 225.73 156.067 225.711 118.768 218.771C100.122 215.301 81.9715 210.106 66.6456 202.749C51.3159 195.391 38.8495 185.89 31.5158 173.829C28.8982 169.524 27.7349 166.92 27.4093 165.366C27.2468 164.59 27.3101 164.153 27.4287 163.909C27.5349 163.691 27.7227 163.552 28.0406 163.469C28.3753 163.382 28.7999 163.373 29.2916 163.392C29.4408 163.398 29.5998 163.407 29.7624 163.417C30.1002 163.436 30.4532 163.456 30.7635 163.451C31.2146 163.444 31.7414 163.39 32.1311 163.101C32.5831 162.766 32.7171 162.232 32.6229 161.603C32.5734 161.272 32.4544 160.972 32.2332 160.743C32.0083 160.511 31.7226 160.397 31.4282 160.362C30.8758 160.295 30.2163 160.493 29.563 160.77C28.4949 161.222 27.1876 162.004 25.8935 162.778C25.577 162.967 25.2613 163.156 24.9501 163.34C24.1466 163.813 23.3658 164.256 22.651 164.6C21.9292 164.948 21.3099 165.177 20.8234 165.251C20.3335 165.324 20.0995 165.226 19.9758 165.083C19.8268 164.911 19.6855 164.511 19.7693 163.65L19.2717 163.601L19.7693 163.65C20.4713 156.439 24.6377 145.915 30.04 135.748C35.437 125.592 42.0205 115.88 47.4918 110.291C48.3709 109.393 48.868 108.458 49.0335 107.497C49.1987 106.538 49.0253 105.6 48.6441 104.707C47.8915 102.944 46.2931 101.277 44.6671 99.7976C44.0241 99.2124 43.3642 98.6455 42.7384 98.108C42.5674 97.9611 42.3989 97.8164 42.234 97.6741C41.4599 97.006 40.767 96.3929 40.2294 95.8345C39.6807 95.2646 39.3474 94.8048 39.2267 94.4488C39.17 94.2818 39.1699 94.1653 39.1922 94.0803C39.2138 93.9984 39.2689 93.897 39.412 93.7802C39.7103 93.5371 40.2776 93.3414 41.1521 93.2312C42.0069 93.1235 43.0768 93.106 44.3047 93.1535C46.7603 93.2487 49.7739 93.6003 52.8254 93.962L53.0937 93.9938C56.0458 94.3439 59.0175 94.6963 61.4891 94.8164C62.7625 94.8782 63.9199 94.8794 64.8837 94.7832C65.8302 94.6887 66.6623 94.4944 67.2281 94.1122C88.6571 79.6353 115.726 68.7664 140.524 61.2172C141.244 60.9978 141.77 60.5886 142.242 60.112C142.476 59.8764 142.702 59.6178 142.929 59.3565L142.961 59.3206C143.181 59.0674 143.406 58.8083 143.658 58.5425C144.691 57.4517 146.185 56.2232 149.242 55.3544C149.341 55.3265 149.488 55.2684 149.602 55.1337C149.737 54.9742 149.767 54.7789 149.732 54.61C149.701 54.466 149.627 54.3527 149.568 54.2774C149.505 54.1964 149.428 54.1204 149.349 54.0501C149.04 53.7781 148.508 53.4423 147.826 53.0603C146.443 52.2859 144.291 51.2405 141.641 50.0192C136.334 47.574 128.97 44.3989 121.609 41.2317L120.692 40.8371C113.637 37.8014 106.663 34.8007 101.571 32.4788C98.9129 31.2666 96.7798 30.245 95.4182 29.5028C94.8653 29.2015 94.4608 28.9574 94.2027 28.7735C94.3752 28.6865 94.6449 28.605 95.0505 28.5559C95.6713 28.4808 96.5048 28.4935 97.5371 28.5938C99.598 28.794 102.362 29.3333 105.618 30.123C112.123 31.7009 120.518 34.2605 129.019 37.0312C137.518 39.801 146.112 42.7782 153.013 45.189C154.232 45.6148 155.399 46.0231 156.503 46.4097C161.642 48.2083 165.436 49.5362 166.863 49.9527L166.969 49.9834L167.077 49.9672C169.956 49.5363 171.75 49.9284 173.106 50.3775C173.424 50.4826 173.718 50.5911 174.004 50.6968L174.08 50.7247C174.387 50.8378 174.69 50.9482 174.987 51.0382C175.587 51.2197 176.197 51.3287 176.875 51.2221C179.626 50.7893 182.177 50.4852 184.625 50.2019C184.853 50.1755 185.08 50.1492 185.307 50.1231C187.509 49.8691 189.637 49.6235 191.752 49.307C203.041 47.617 214.148 48.1644 224.623 50.6157C225.015 50.7074 225.468 50.6722 225.926 50.5809C226.393 50.488 226.911 50.327 227.455 50.1278C228.49 49.7489 229.668 49.2116 230.829 48.6826L231.002 48.6034C232.23 48.044 233.429 47.5029 234.458 47.145C234.972 46.9663 235.429 46.839 235.814 46.7767ZM93.9299 28.5449C93.93 28.5449 93.9309 28.5461 93.9325 28.5484C93.9306 28.546 93.9298 28.5449 93.9299 28.5449Z" fill="url(#paint1_linear_178_2)" stroke="#FFFDFD"/>
<circle cx="154.965" cy="73.5502" r="9.53009" transform="rotate(-8.51367 154.965 73.5502)" fill="#F5F5F5" stroke="#F5F5F5"/>
<circle cx="160.5" cy="74.5" r="6.5" fill="black"/>
<defs>
<linearGradient id="paint0_linear_178_2" x1="370" y1="134" x2="259" y2="133" gradientUnits="userSpaceOnUse">
<stop stop-color="#408C82"/>
<stop offset="1" stop-color="#A4FFF3"/>
</linearGradient>
<linearGradient id="paint1_linear_178_2" x1="43" y1="143" x2="385" y2="144" gradientUnits="userSpaceOnUse">
<stop stop-color="#408C82"/>
<stop offset="1" stop-color="#A4FFF3"/>
</linearGradient>
</defs>
</svg>
